<svg width="34" height="34" viewBox="0 0 34 34" fill="none" xmlns="http://www.w3.org/2000/svg">
<rect width="34" height="34" rx="4" fill="#FFEBEB"/>
<path d="M26.815 9.64123C26.7252 9.5386 26.6151 9.45562 26.4917 9.39749C26.3683 9.33936 26.2342 9.30732 26.0978 9.30338C23.9794 9.248 21.2987 6.98277 19.5264 6.09385C18.4317 5.54646 17.7089 5.18554 17.1661 5.09046C17.0559 5.0744 16.9439 5.07471 16.8338 5.09138C16.291 5.18646 15.5683 5.54738 14.4744 6.09477C12.7021 6.98277 10.0215 9.24892 7.90304 9.30338C7.76659 9.30752 7.63243 9.33965 7.5089 9.39776C7.38536 9.45588 7.27508 9.53874 7.18489 9.64123C6.99794 9.85274 6.90149 10.1292 6.91628 10.4111C7.37135 19.6631 10.6898 25.3889 16.5126 28.7166C16.664 28.8025 16.832 28.8468 16.999 28.8468C17.1661 28.8468 17.3341 28.8025 17.4864 28.7166C23.3092 25.3889 26.6267 19.6631 27.0827 10.4111C27.0984 10.1292 27.0022 9.85257 26.815 9.64123ZM17 21.668C15.5171 21.668 14.095 21.0789 13.0465 20.0304C11.9979 18.9819 11.4089 17.5598 11.4089 16.0769C11.4089 14.5941 11.9979 13.172 13.0465 12.1234C14.095 11.0749 15.5171 10.4858 17 10.4858C18.4828 10.4858 19.9049 11.0749 20.9535 12.1234C22.002 13.172 22.591 14.5941 22.591 16.0769C22.591 17.5598 22.002 18.9819 20.9535 20.0304C19.9049 21.0789 18.4828 21.668 17 21.668ZM19.2892 12.8545L13.7775 18.3662C13.2977 17.6991 13.0388 16.8986 13.0372 16.0769C13.0387 15.0264 13.4566 14.0193 14.1995 13.2764C14.9423 12.5336 15.9494 12.1156 17 12.1142C17.8547 12.1142 18.6403 12.392 19.2892 12.8545ZM20.2215 13.7877C20.684 14.4357 20.9627 15.2231 20.9627 16.0769C20.9613 17.1275 20.5433 18.1346 19.8004 18.8774C19.0576 19.6203 18.0505 20.0382 17 20.0397C16.1783 20.0382 15.3777 19.7793 14.7107 19.2994L20.2215 13.7877Z" fill="#DE0108"/>
</svg>
