<svg width="172" height="210" xmlns="http://www.w3.org/2000/svg" xmlns:xlink="http://www.w3.org/1999/xlink" overflow="hidden"><defs><clipPath id="clip0"><rect x="1954" y="2682" width="172" height="210"/></clipPath></defs><g clip-path="url(#clip0)" transform="translate(-1954 -2682)"><path d="M2076.14 2888.28 1957.5 2888.28 1957.5 2715.64 1959.32 2706.63 1964.28 2699.28 1971.64 2694.32 1980.66 2692.5 2099.29 2692.5 2108.3 2694.32 2115.67 2699.28 2120.63 2706.63 2122.45 2715.64 2122.45 2841.99 2118.81 2860.01 2108.88 2874.72 2094.16 2884.64 2076.14 2888.28Z" stroke="#FF0000" stroke-width="7.17959" stroke-linejoin="round" stroke-miterlimit="10" fill="none" fill-rule="evenodd"/><path d="M2078.31 2682 2000.8 2682 1996.37 2682.91 1992.82 2685.38 1990.56 2689.02 1990 2693.42 1991.21 2697.26 1993.81 2700.28 1997.4 2702.26 2001.57 2702.97 2079.08 2702.97 2083.51 2702.06 2087.06 2699.59 2089.31 2695.95 2089.88 2691.54 2088.67 2687.71 2086.07 2684.69 2082.48 2682.71 2078.31 2682Z" fill="#FF0000" fill-rule="evenodd"/><path d="M1987.5 2738.5 2091.29 2738.5" stroke="#FF0000" stroke-width="7.17959" stroke-linejoin="round" stroke-miterlimit="10" fill="none" fill-rule="evenodd"/><path d="M1987.5 2754.5 2091.29 2754.5" stroke="#FF0000" stroke-width="7.17959" stroke-linejoin="round" stroke-miterlimit="10" fill="none" fill-rule="evenodd"/></g></svg>