<svg width="126" height="216" xmlns="http://www.w3.org/2000/svg" xmlns:xlink="http://www.w3.org/1999/xlink" overflow="hidden"><defs><clipPath id="clip0"><rect x="2403" y="2676" width="126" height="216"/></clipPath></defs><g clip-path="url(#clip0)" transform="translate(-2403 -2676)"><path d="M2520.27 2888.28 2411.62 2888.28 2408.8 2888.28 2406.5 2885.97 2406.5 2883.14 2406.5 2684.63 2406.5 2681.8 2408.8 2679.5 2411.62 2679.5 2520.27 2679.5 2523.09 2679.5 2525.39 2681.8 2525.39 2684.63 2525.39 2883.14 2525.39 2885.97 2523.09 2888.28 2520.27 2888.28Z" stroke="#FF0000" stroke-width="7.17959" stroke-linejoin="round" stroke-miterlimit="10" fill="none" fill-rule="evenodd"/><path d="M2468.52 2689 2462.46 2689 2460 2691.68 2460 2698.3 2462.46 2700.98 2468.52 2700.98 2470.98 2698.3 2470.98 2694.99 2470.98 2691.68 2468.52 2689Z" fill="#FF0000" fill-rule="evenodd"/><path d="M2406.5 2854.5 2525.39 2854.5" stroke="#FF0000" stroke-width="7.17959" stroke-linejoin="round" stroke-miterlimit="10" fill="none" fill-rule="evenodd"/><path d="M2457.5 2870.5 2474.44 2870.5" stroke="#FF0000" stroke-width="7.17959" stroke-linejoin="round" stroke-miterlimit="10" fill="none" fill-rule="evenodd"/></g></svg>