<svg width="232" height="163" xmlns="http://www.w3.org/2000/svg" xmlns:xlink="http://www.w3.org/1999/xlink" overflow="hidden"><defs><clipPath id="clip0"><rect x="645" y="3306" width="232" height="163"/></clipPath></defs><g clip-path="url(#clip0)" transform="translate(-645 -3306)"><path d="M665.5 3442.39 665.905 3317.2 673.646 3309.5 848.323 3309.5 851.33 3310.1 853.789 3311.74 855.451 3314.19 856.068 3317.2 856.473 3442.39" stroke="#FF0000" stroke-width="7.17959" stroke-linejoin="round" stroke-miterlimit="10" fill="none" fill-rule="evenodd"/><path d="M759.369 3465.39 862.06 3465.39 866.469 3464.49 870.07 3462.04 872.497 3458.4 873.387 3453.95 872.497 3449.49 870.07 3445.85 866.469 3443.4 862.06 3442.5 659.824 3442.5 655.416 3443.4 651.817 3445.85 649.39 3449.49 648.5 3453.95 649.39 3458.4 651.817 3462.04 655.416 3464.49 659.824 3465.39 762.514 3465.39 759.369 3465.39Z" stroke="#FF0000" stroke-width="7.17959" stroke-linejoin="round" stroke-miterlimit="10" fill="none" fill-rule="evenodd"/></g></svg>