<svg width="223" height="88" xmlns="http://www.w3.org/2000/svg" xmlns:xlink="http://www.w3.org/1999/xlink" overflow="hidden"><defs><clipPath id="clip0"><rect x="1918" y="3342" width="223" height="88"/></clipPath></defs><g clip-path="url(#clip0)" transform="translate(-1918 -3342)"><path d="M1944.67 3379.72 1930 3379.7 1930 3347.61 1921.39 3347.61 1921.39 3386.59 1921.52 3386.59 1939.3 3386.61 1940.86 3385.51 1943.11 3382.1 1944.67 3379.72Z" fill="#FF0000" fill-rule="evenodd"/><path d="M1956.26 3355.87 1947.79 3355.87 1947.79 3386.59 1956.26 3386.59 1956.26 3355.87Z" fill="#FF0000" fill-rule="evenodd"/><path d="M1957.09 3344.24 1954.96 3342.05 1949.12 3342.05 1946.98 3344.24 1946.98 3349.48 1949.12 3351.73 1954.96 3351.73 1957.09 3349.48 1957.09 3344.24Z" fill="#FF0000" fill-rule="evenodd"/><path d="M1984.53 3355.85 1973.84 3355.86 1973.84 3350.74 1975.05 3349.48 1979.87 3349.48 1981.07 3349.8 1982.21 3350.05 1982.21 3349.48 1982.21 3343.98 1980.88 3343.61 1978.73 3343.09 1976.06 3343.09 1971.57 3343.67 1968.2 3345.44 1966.08 3348.45 1965.34 3352.77 1965.34 3355.87 1960.58 3355.88 1960.58 3362.75 1965.34 3362.75 1965.34 3386.6 1973.84 3386.6 1973.84 3362.75 1979.17 3362.75 1980.72 3361.64 1982.97 3358.23 1984.52 3355.86Z" fill="#FF0000" fill-rule="evenodd"/><path d="M2009.45 3369.63 2009.2 3367.62 2008.8 3364.28 2007.45 3361.48 2006.6 3359.72 2002.55 3356.54 2001.2 3356.29 2001.2 3364.37 2001.2 3367.62 1990.52 3367.62 1990.9 3363.67 1993.04 3361.48 1999.63 3361.48 2001.2 3364.37 2001.2 3356.29 1985.37 3360.04 1981.66 3371.26 1982.57 3377.67 1985.42 3382.69 1990.38 3385.95 1997.62 3387.11 2000.39 3386.98 2003 3386.6 2005.31 3386.05 2007.36 3385.36 2007.36 3380.84 2007.36 3380.59 2006.6 3379.71 2003.06 3380.34 2001.59 3380.64 1999.99 3380.84 1998.25 3380.84 1994.5 3380.25 1992.07 3378.58 1990.73 3375.96 1990.27 3372.52 2009.26 3372.52 2009.37 3371.64 2009.45 3370.38 2009.45 3369.63Z" fill="#FF0000" fill-rule="evenodd"/><path d="M2012.84 3415.81 2009.11 3410.31 1998.95 3405.82 1983.88 3402.79 1965.42 3401.68 1946.96 3402.79 1931.89 3405.82 1921.73 3410.31 1918 3415.81 1921.73 3421.31 1931.89 3425.81 1946.96 3428.84 1965.42 3429.94 1983.88 3428.84 1998.95 3425.81 2009.11 3421.31 2012.84 3415.81Z" fill="#FF0000" fill-rule="evenodd"/><path d="M2055.48 3386.6 2051.98 3359.79 2050.39 3347.61 2043.45 3347.61 2040.7 3347.75 2039.68 3348.72 2038.93 3351.21 2033.49 3372 2030.29 3359.79 2028.04 3351.21 2027.31 3348.72 2026.28 3347.75 2023.54 3347.61 2016.58 3347.61 2011.5 3386.6 2019.15 3386.6 2022.64 3359.79 2029.67 3386.6 2037.32 3386.6 2041.14 3372 2044.34 3359.79 2047.83 3386.6 2055.48 3386.6Z" fill="#FF0000" fill-rule="evenodd"/><path d="M2057.24 3401.12 2055.37 3398.37 2050.28 3396.11 2042.73 3394.6 2033.49 3394.04 2024.24 3394.6 2016.7 3396.11 2011.61 3398.37 2009.74 3401.12 2011.61 3403.87 2016.7 3406.12 2024.24 3407.64 2033.49 3408.19 2042.73 3407.64 2050.28 3406.12 2055.37 3403.87 2057.24 3401.12Z" fill="#FF0000" fill-rule="evenodd"/><path d="M2069.19 3355.85 2060.69 3355.85 2060.69 3386.6 2069.19 3386.6 2069.19 3355.85Z" fill="#FF0000" fill-rule="evenodd"/><path d="M2070.4 3344.19 2068.25 3342 2062.41 3342 2060.27 3344.19 2060.27 3349.46 2062.41 3351.7 2068.25 3351.7 2070.4 3349.46 2070.4 3344.19Z" fill="#FF0000" fill-rule="evenodd"/><path d="M2074.54 3394.21 2073.81 3393.15 2071.85 3392.28 2068.93 3391.7 2065.36 3391.48 2061.79 3391.7 2058.88 3392.28 2056.91 3393.15 2056.2 3394.21 2056.91 3395.28 2058.88 3396.15 2061.79 3396.73 2065.36 3396.95 2068.93 3396.73 2071.85 3396.15 2073.81 3395.28 2074.54 3394.21Z" fill="#FF0000" fill-rule="evenodd"/><path d="M2084.12 3343.99 2075.7 3343.99 2075.7 3386.6 2084.12 3386.6 2084.12 3343.99Z" fill="#FF0000" fill-rule="evenodd"/><path d="M2115.8 3369.63 2115.56 3367.62 2115.15 3364.28 2113.81 3361.48 2112.96 3359.72 2108.91 3356.54 2107.57 3356.29 2107.57 3364.37 2107.57 3367.62 2096.88 3367.62 2097.25 3363.67 2099.4 3361.48 2106 3361.48 2107.57 3364.37 2107.57 3356.29 2091.73 3360.04 2088.02 3371.26 2088.93 3377.67 2091.77 3382.69 2096.74 3385.95 2103.98 3387.11 2106.75 3386.98 2109.32 3386.61 2111.67 3386.05 2113.72 3385.36 2113.72 3380.84 2113.72 3380.59 2112.97 3379.71 2109.41 3380.34 2107.95 3380.64 2106.33 3380.84 2104.6 3380.84 2100.86 3380.25 2098.42 3378.58 2097.08 3375.96 2096.62 3372.52 2115.61 3372.52 2115.74 3371.64 2115.8 3370.38 2115.8 3369.63Z" fill="#FF0000" fill-rule="evenodd"/><path d="M2140.9 3377.33 2128.14 3366.55 2126.76 3366 2126.8 3362.4 2128.02 3361.48 2132.36 3361.48 2133.41 3361.61 2134.43 3361.78 2138 3362.4 2138.56 3361.75 2138.76 3361.51 2138.76 3356.6 2137.13 3355.97 2133.92 3355.35 2130.77 3355.35 2125.92 3355.9 2122.15 3357.57 2119.71 3360.48 2118.85 3364.68 2119.41 3368.11 2132.87 3375.45 2132.87 3379.9 2131.29 3380.97 2126.36 3380.97 2124.79 3380.76 2123.29 3380.45 2119.73 3379.83 2118.98 3380.7 2118.96 3385.36 2120.91 3386.08 2123.24 3386.63 2125.95 3386.99 2129.02 3387.11 2133.87 3386.48 2137.62 3384.6 2140.04 3381.53 2140.16 3380.97 2140.9 3377.33Z" fill="#FF0000" fill-rule="evenodd"/></g></svg>