<svg width="229" height="128" xmlns="http://www.w3.org/2000/svg" xmlns:xlink="http://www.w3.org/1999/xlink" overflow="hidden"><defs><clipPath id="clip0"><rect x="1070" y="2722" width="229" height="128"/></clipPath></defs><g clip-path="url(#clip0)" transform="translate(-1070 -2722)"><path d="M1116.81 2840.6 1116.27 2839.37 1114.46 2837.63 1113.23 2837.1 1111.9 2837.1 1110.63 2837.1 1109.36 2837.63 1108.48 2838.52 1107.98 2838.94 1107.64 2839.46 1107.15 2840.6 1107 2841.21 1107 2843.09 1107.54 2844.32 1108.48 2845.17 1110.29 2846.92 1113.57 2846.92 1115.83 2844.75 1115.98 2844.46 1116.17 2844.23 1116.32 2843.94 1116.41 2843.66 1116.57 2843.38 1116.66 2843.05 1116.81 2842.15 1116.81 2840.6Z" fill="#FF0000" fill-rule="evenodd"/><path d="M1116.81 2820.41 1114.6 2818.29 1109.21 2818.29 1107 2820.41 1107 2825.6 1109.21 2827.72 1114.6 2827.72 1116.81 2825.6 1116.81 2820.41Z" fill="#FF0000" fill-rule="evenodd"/><path d="M1116.81 2801.54 1114.6 2799.42 1109.21 2799.42 1107 2801.54 1107 2806.78 1109.21 2808.85 1114.6 2808.85 1116.81 2806.78 1116.81 2801.54Z" fill="#FF0000" fill-rule="evenodd"/><path d="M1116.81 2782.68 1114.6 2780.55 1109.21 2780.55 1107 2782.68 1107 2787.91 1109.21 2790.03 1114.6 2790.03 1116.81 2787.91 1116.81 2782.68Z" fill="#FF0000" fill-rule="evenodd"/><path d="M1116.81 2763.85 1114.6 2761.73 1109.21 2761.73 1107 2763.85 1107 2769.04 1109.21 2771.17 1114.6 2771.17 1116.81 2769.04 1116.81 2763.85Z" fill="#FF0000" fill-rule="evenodd"/><path d="M1116.81 2744.99 1114.6 2742.87 1109.21 2742.87 1107 2744.99 1107 2750.23 1109.21 2752.3 1114.6 2752.3 1116.81 2750.23 1116.81 2744.99Z" fill="#FF0000" fill-rule="evenodd"/><path d="M1116.81 2727.49 1116.27 2726.31 1115.39 2725.42 1114.46 2724.52 1113.18 2724 1111.9 2724 1110.63 2724 1109.36 2724.52 1108.48 2725.42 1107.98 2725.84 1107.64 2726.36 1107.15 2727.54 1107 2728.1 1107 2729.38 1107.15 2729.99 1107.64 2731.12 1107.98 2731.64 1108.48 2732.07 1110.24 2733.81 1113.57 2733.81 1116.27 2731.22 1116.81 2729.99 1116.81 2727.49Z" fill="#FF0000" fill-rule="evenodd"/><path d="M1073.5 2725.5 1267.19 2725.5 1278.21 2727.72 1287.21 2733.78 1293.27 2742.76 1295.49 2753.76 1295.49 2846.39 1073.5 2846.39 1073.5 2725.5Z" stroke="#FF0000" stroke-width="7.17959" stroke-linejoin="round" stroke-miterlimit="10" fill="none" fill-rule="evenodd"/><path d="M1182.93 2785.41 1191.66 2781.18 1202.17 2775.6 1212.27 2769.99 1219.72 2765.67 1234.92 2759.5 1246.2 2759.72 1253.83 2763.36 1258.06 2767.49 1258.49 2768.03 1258.07 2768.86 1257.45 2769.14 1157.63 2813.17 1157 2813.45 1156.27 2813.18 1155.98 2812.55 1150.5 2799.89" stroke="#FF0000" stroke-width="7.17959" stroke-linejoin="round" stroke-miterlimit="10" fill="none" fill-rule="evenodd"/><path d="M1199.32 2794.38 1161.5 2771.5" stroke="#FF0000" stroke-width="7.17959" stroke-linejoin="round" stroke-miterlimit="10" fill="none" fill-rule="evenodd"/></g></svg>