<svg width="144" height="215" xmlns="http://www.w3.org/2000/svg" xmlns:xlink="http://www.w3.org/1999/xlink" overflow="hidden"><defs><clipPath id="clip0"><rect x="688" y="2678" width="144" height="215"/></clipPath></defs><g clip-path="url(#clip0)" transform="translate(-688 -2678)"><path d="M703.5 2784.38 703.5 2708.25 705.606 2697.84 711.349 2689.33 719.868 2683.6 730.299 2681.5 790.672 2681.5 801.103 2683.6 809.621 2689.33 815.365 2697.84 817.471 2708.25 817.471 2784.38" stroke="#FF0000" stroke-width="7.17959" stroke-linejoin="round" stroke-miterlimit="10" fill="none" fill-rule="evenodd"/><path d="M805.011 2795.95 805.011 2819.22 805.011 2821.41 803.229 2823.18 801.034 2823.18 718.453 2823.18 716.259 2823.18 714.477 2821.41 714.477 2819.22 714.477 2795.95 713.585 2791.52 711.147 2787.89 707.528 2785.43 703.087 2784.5 698.584 2785.37 694.9 2787.82 692.413 2791.47 691.5 2795.95 691.5 2830.04 693.101 2837.94 697.468 2844.4 703.945 2848.75 711.877 2850.35 808.085 2850.35 816.016 2848.75 822.492 2844.4 826.857 2837.94 828.458 2830.04 828.458 2795.95 827.556 2791.49 825.095 2787.85 821.444 2785.4 816.973 2784.5 816.499 2784.5 812.027 2785.4 808.376 2787.85 805.913 2791.49 805.011 2795.95Z" stroke="#FF0000" stroke-width="7.17959" stroke-linejoin="round" stroke-miterlimit="10" fill="none" fill-rule="evenodd"/><path d="M802.198 2850.5 812.39 2889.31 759.945 2889.31 707.5 2889.31 717.692 2850.5" stroke="#FF0000" stroke-width="7.17959" stroke-linejoin="round" stroke-miterlimit="10" fill="none" fill-rule="evenodd"/></g></svg>